PathFileType	4	(X/Y/Z)	Kaydara	
DataRate	CameraRate	NumFrames	NumMarkers	Units	OrigDataRate	OrigDataStartFrame	OrigNumFrames	
240.00	240.00	4	72	mm	240.00	180	359	
Frame#	Time	Hips			RightUpLeg			RightLeg			RightFoot			RightFoot_End			LeftUpLeg			LeftLeg			LeftFoot			LeftFoot_End			Spine			Spine1			Spine2			Spine3			Neck			Head			Head_End			RightShoulder			RightArm			RightForeArm			RightHand			RightHandThumb1			RightHandThumb2			RightHandThumb3			RightHandThumb3_End			RightInHandIndex			RightHandIndex1			RightHandIndex2			RightHandIndex3			RightHandIndex3_End			RightInHandMiddle			RightHandMiddle1			RightHandMiddle2			RightHandMiddle3			RightHandMiddle3_End			RightInHandRing			RightHandRing1			RightHandRing2			RightHandRing3			RightHandRing3_End			RightInHandPinky			RightHandPinky1			RightHandPinky2			RightHandPinky3			RightHandPinky3_End			LeftShoulder			LeftArm			LeftForeArm			LeftHand			LeftHandThumb1			LeftHandThumb2			LeftHandThumb3			LeftHandThumb3_End			LeftInHandIndex			LeftHandIndex1			LeftHandIndex2			LeftHandIndex3			LeftHandIndex3_End			LeftInHandMiddle			LeftHandMiddle1			LeftHandMiddle2			LeftHandMiddle3			LeftHandMiddle3_End			LeftInHandRing			LeftHandRing1			LeftHandRing2			LeftHandRing3			LeftHandRing3_End			LeftInHandPinky			LeftHandPinky1			LeftHandPinky2			LeftHandPinky3			LeftHandPinky3_End			
		X1	Y1	Z1	X2	Y2	Z2	X3	Y3	Z3	X4	Y4	Z4	X5	Y5	Z5	X6	Y6	Z6	X7	Y7	Z7	X8	Y8	Z8	X9	Y9	Z9	X10	Y10	Z10	X11	Y11	Z11	X12	Y12	Z12	X13	Y13	Z13	X14	Y14	Z14	X15	Y15	Z15	X16	Y16	Z16	X17	Y17	Z17	X18	Y18	Z18	X19	Y19	Z19	X20	Y20	Z20	X21	Y21	Z21	X22	Y22	Z22	X23	Y23	Z23	X24	Y24	Z24	X25	Y25	Z25	X26	Y26	Z26	X27	Y27	Z27	X28	Y28	Z28	X29	Y29	Z29	X30	Y30	Z30	X31	Y31	Z31	X32	Y32	Z32	X33	Y33	Z33	X34	Y34	Z34	X35	Y35	Z35	X36	Y36	Z36	X37	Y37	Z37	X38	Y38	Z38	X39	Y39	Z39	X40	Y40	Z40	X41	Y41	Z41	X42	Y42	Z42	X43	Y43	Z43	X44	Y44	Z44	X45	Y45	Z45	X46	Y46	Z46	X47	Y47	Z47	X48	Y48	Z48	X49	Y49	Z49	X50	Y50	Z50	X51	Y51	Z51	X52	Y52	Z52	X53	Y53	Z53	X54	Y54	Z54	X55	Y55	Z55	X56	Y56	Z56	X57	Y57	Z57	X58	Y58	Z58	X59	Y59	Z59	X60	Y60	Z60	X61	Y61	Z61	X62	Y62	Z62	X63	Y63	Z63	X64	Y64	Z64	X65	Y65	Z65	X66	Y66	Z66	X67	Y67	Z67	X68	Y68	Z68	X69	Y69	Z69	X70	Y70	Z70	X71	Y71	Z71	X72	Y72	Z72	

180	0.746	5198.941	914.58397	126.699	5253.0475903587785	894.7343348950714	53.303182615583204	5155.9495285563535	498.29563167839285	-41.21926215199511	5141.245608251765	106.54261943568704	-115.87884762613115	4989.817652651488	29.751653650494646	-28.066547885208962	5158.889272278301	908.2857402577855	211.79039207271842	5066.143924704797	506.7537461648058	286.5062974838971	4990.805632584776	82.69907634704742	376.219822592623	4869.2943441018515	0.4651585804692413	253.69982159999	5133.474061908908	1032.0750928659943	77.80722251854128	5071.903431610228	1087.252478713489	26.86064156920267	5005.103833487436	1137.885431733251	-29.74914249123142	4938.062306259477	1175.811511498076	-88.91930203639171	4865.267632428975	1216.8466494017823	-150.45078343485318	4797.381995539863	1254.7565894161462	-203.92703034485854	4660.915783644167	1335.4885011638582	-216.14204186136766	4907.397230342543	1200.2487361987867	-152.71885382673054	4952.53966394558	1169.3740882839868	-249.3282206392872	5004.94384102992	943.577328529818	-237.8217983741455	5009.021910722709	840.4910844975466	-349.7652353003219	4999.931719389651	852.6047907735975	-346.92388257250013	4990.108693817754	861.8297666598802	-346.3744604033752	4985.490940617782	865.6006851701098	-347.8732986126257	4983.543035537307	866.4744592563208	-350.7323511471212	5007.774092515891	843.7690341928587	-353.7966347303981	5011.047884666362	840.8238762999615	-365.25174039863424	5009.54686661831	841.10110808329	-371.1458493225128	5004.4743759889325	844.9405611717045	-371.24837672979265	4997.483782545389	850.59204531649	-368.9306668670464	5013.526719467311	836.7654326601119	-358.4164370210274	5019.832554916133	830.1038997779372	-372.08884434243225	5018.938354787846	829.4947636920897	-379.09031476645043	5013.175447048663	833.689459032557	-379.4874394475349	5005.699960479169	839.6605461813763	-377.0843672937947	5017.560967631977	831.8509874427571	-361.4236831115598	5026.870971203584	821.4932441196926	-376.3917728104329	5026.841193357428	820.0414776593041	-383.05475240498384	5021.680493984406	823.5985839607242	-383.7354454414151	5014.840286182471	828.9811783685632	-381.61699222522736	5021.693901581678	826.5995190701834	-364.276811286894	5032.961690000944	813.721550819999	-379.88779475415447	5034.0663330786	811.167887589962	-386.0321262971288	5030.847983296677	813.0895168678129	-386.91990129896436	5025.102836578851	817.4703364760601	-385.2684788968194	4871.500012038004	1206.4354376301314	-106.20515072055755	4827.994736196203	1174.2207563211223	-8.327087957833363	4926.33771133759	1004.4566859421997	-117.35855169210438	5018.516638789093	891.2332153904575	-281.8461219981904	5022.665193617283	896.2776264602757	-288.1906509693616	5045.217122458672	886.599572836842	-304.5138260312129	5062.884926026545	877.6351751825991	-317.703177433139	5079.292796394757	868.258860094729	-330.257149730019	5028.975521546434	889.5682062657834	-295.05113567045464	5057.029222670711	875.2969921946304	-323.0841369622118	5082.458667701416	861.0797979287256	-343.9416862965989	5097.734806442403	852.8080033673382	-353.99011644396916	5110.019105356538	846.3439195781699	-360.3384458345052	5033.617908953443	883.8106630910657	-299.094812502822	5063.4900293241235	866.7779125339098	-328.6242050399278	5091.767546256394	850.5453702645333	-351.82824876940606	5110.451461038487	840.2208424833979	-364.1645102119603	5124.016100607763	832.9802914157765	-371.21437496869675	5036.140304547958	880.1332712331247	-301.24010067981635	5064.979698626548	861.7527546585833	-329.57767385273803	5090.12049548971	846.8963199510246	-350.20995721070113	5108.404955995844	836.5614628048148	-362.3256897889821	5121.283452937721	829.5753255674922	-369.0568932462673	5038.562193798649	876.1024414485069	-302.8706832355354	5066.376188131149	856.8420394527358	-329.888745997202	5087.153254989437	843.9208195560078	-346.9225339456604	5100.802145817304	835.8868320754927	-356.0075766052024	5112.390028682026	829.4129701604679	-362.11292698781176
181	0.75	5198.941	914.58397	126.699	5252.982917415523	894.6651980788674	53.28737008976709	5155.849947135843	498.2526215019589	-41.30596668333498	5141.2685209530055	106.50517343762863	-115.99855311657285	4989.843943194114	29.70822597805063	-28.18568529400939	5158.951500598788	908.3572930494954	211.81361372274318	5066.174047899618	506.81855648906986	286.45226561303417	4990.834002947429	82.74802882438028	376.074676129061	4869.33490280256	0.49982056280751785	253.55228746099277	5133.48786580368	1032.0675747958717	77.77513432883457	5071.909054625411	1087.2346264393943	26.828539368983385	5005.0976305859995	1137.857181983914	-29.776058318679734	4938.042750504567	1175.775697638073	-88.93614320758603	4865.237512975506	1216.8041706109198	-150.45971920966898	4797.347543941977	1254.7112340167585	-203.93270326999337	4660.947296622158	1335.5063798542326	-216.33551567760156	4907.324794673561	1200.1571187333532	-152.7115298280062	4952.223088595477	1169.2266487192403	-249.16154630229508	5004.704359130405	943.9235852813601	-237.100259206477	5008.8541783275605	841.5039046538812	-349.2914411986799	5000.0255735391775	854.1366593867978	-346.04685258146424	4990.695208252498	863.555202464709	-345.46259717606733	4986.395019447878	867.4058152588797	-347.0049163579461	4984.6900184830765	868.2988852677531	-349.95816598227816	5007.772372026092	845.1740406796662	-353.1046314250476	5011.326818303047	842.5240034999134	-364.5676013397053	5010.171081378707	842.8834545088608	-370.5783008653556	5005.394586775334	846.7284110794278	-370.7585159367364	4998.70385200418	852.3536836879194	-368.50861798896835	5013.4529367868945	838.0044339234925	-357.9136802673697	5019.993492674617	831.5409958551016	-371.6960898948084	5019.465831433201	830.9985621245668	-378.8498679878121	5014.055122357093	835.1888529099436	-379.3527570293081	5006.905348825381	841.1258907738428	-377.0297350139772	5017.427477313024	832.9661241819342	-361.05374447079794	5026.8912266338	822.6811663539529	-376.2337130805962	5027.17011595833	821.2636914577497	-383.0549171031843	5022.3433999134595	824.8038853454675	-383.85115555471026	5015.806724287065	830.1484634882095	-381.814380095684	5021.496334884069	827.5558690605219	-364.0651125634634	5032.860243403277	814.650047629634	-379.9656920091213	5034.19453344225	812.0863161989628	-386.2755449468991	5031.211316310222	813.9774559839971	-387.26637837556297	5025.730171668604	818.3141520545339	-385.69811668612306	4871.520993108567	1206.4475558770573	-106.23702178705021	4828.144878804989	1174.517063982	-8.522341172949456	4926.587737289526	1004.8991188203473	-116.66627282354251	5017.629262156209	891.845844505056	-281.80429324839383	5021.64872648953	897.2748925988209	-287.78940149262183	5043.729319599619	887.6755523792285	-304.03367200189876	5061.052116154658	878.7242564976808	-317.22786266218384	5077.158023988584	869.3231785794342	-329.8370166482737	5027.91380178364	890.4746340115895	-294.8173871774588	5055.523197370772	876.3963325223034	-322.8388201781879	5080.5008149324185	862.1883638924802	-343.7622898462601	5095.465896603904	853.8726903309666	-353.844500010232	5107.4723925258795	847.3388213655369	-360.2159307383657	5032.519265644778	884.5909781109768	-299.02759746679516	5061.938092400373	867.6782099252515	-328.6357636383829	5089.718966770813	851.4383125268859	-351.93384318907704	5108.025870819456	841.0524857393141	-364.32146577266747	5121.28570151797	833.7315126281544	-371.4017640301791	5035.028163080084	880.8205999381622	-301.2904742163225	5063.453256039551	862.4699213973187	-329.7996587985926	5088.158189302337	847.5890681259428	-350.53637616937755	5106.077405889253	837.1855200485527	-362.7135846722292	5118.668553738288	830.1192338816394	-369.4790584780409	5037.437517507743	876.6688548179924	-303.0597752369521	5064.867841691347	857.3648121162665	-330.3195380444048	5085.293020647105	844.395806779495	-347.4712660898193	5098.674115531652	836.2980590374472	-356.61774804653953	5110.006656196548	829.7453385448152	-362.76300891642256
182	0.754	5198.941	914.58397	126.699	5252.9171357443365	894.5959999738027	53.27104108757974	5155.751271449956	498.21041573833526	-41.39842739109323	5141.2921433613565	106.46917564233765	-116.12676790244927	4989.870996133155	29.66634274780511	-28.313158986361234	5159.014825937478	908.4288115448124	211.83714644025505	5066.207786292336	506.88228074064114	286.3957788946493	4990.8658284290295	82.79508857619675	375.92274941488665	4869.379286901292	0.5320029888333433	253.39800205275077	5133.501772117228	1032.060487945393	77.74398948571114	5071.915371448025	1087.2186267803852	26.79813694905913	5005.092495226421	1137.832109899585	-29.80060264724033	4938.02388810668	1175.7434128880964	-88.95003129230628	4865.207682272853	1216.7654034768527	-150.46517861196156	4797.312988796673	1254.669588050051	-203.9344650439733	4660.975667146344	1335.5227579559141	-216.52572024157845	4907.253062536538	1200.0689509834854	-152.7020968777116	4951.909668085757	1169.0823779773627	-249.00274612284366	5004.459560416594	944.2648273377803	-236.37215713421787	5008.653388843384	842.4814327786715	-348.87170317066904	5000.110327793248	855.6395504822882	-345.2525686425638	4991.274111405986	865.246243026401	-344.66348693999566	4987.288680434934	869.171096866942	-346.2681765337906	4985.820956101673	870.0774791972093	-349.3296532775422	5007.751333322011	846.5453400078692	-352.49047862439687	5011.5872826906	844.1835183369008	-363.9916695521262	5010.770149975035	844.6165665474482	-370.14185756109094	5006.284575882984	848.4614759053219	-370.41424848513236	4999.888875195939	854.0558142483073	-368.2443246923323	5013.349007928822	839.205216747278	-357.48234188914756	5020.119257528357	832.9306992924228	-371.40088325534737	5019.949408775263	832.4449819499647	-378.7310101967357	5014.8840836657055	836.6238942874604	-379.35668960610064	5008.054408131484	842.5215805943673	-377.1268049821348	5017.256218036995	834.0400578646961	-360.749880168938	5026.862733925807	823.8171499801246	-376.1604324865829	5027.441219450248	822.4246866185719	-383.1598085741675	5022.941135404011	825.9409352111556	-384.08748074036515	5016.702343721857	831.2423666106663	-382.14443499558587	5021.2518042077645	828.4675681704069	-363.9126469876447	5032.696258260578	815.5220077546926	-380.11568642386624	5034.250693487268	812.9399246679495	-386.6053820637838	5031.496164286646	814.7950328315791	-387.7100637693262	5026.273395235842	819.0828233059715	-386.23517895623246	4871.5421166326005	1206.4635475021707	-106.26436553574969	4828.294701974418	1174.8089376269677	-8.706534794970413	4926.845489120982	1005.3325472113147	-115.98568133020297	5016.683269269416	892.4241930389866	-281.789631734928	5020.594133858548	898.2462367744321	-287.42420474412796	5042.206346457887	888.7249017622146	-303.5785069565047	5059.18213578939	879.7846129790968	-316.7685800850771	5074.98094189171	870.3556559690496	-329.42437782131475	5026.802003199245	891.3506727599422	-294.6177762609599	5053.961994588579	877.4630955117851	-322.6260367294297	5078.480420857728	863.2601217370216	-343.60492148057745	5093.131474375564	854.8979268757629	-353.71037133771574	5104.858792112388	848.292077589344	-360.0934748410765	5031.359501888168	885.3364958159699	-298.9907243476792	5060.314090621918	868.539191875721	-328.6740490204331	5087.588841891119	852.2867447688446	-352.05419372304044	5105.5144572237505	841.8361538010607	-364.4802174628233	5118.467637214648	834.4322219373634	-371.5783259381552	5033.847241566561	881.4700892905092	-301.36863579981167	5061.841608719899	863.1426074727889	-330.04422901327814	5086.10095514291	848.2322242328042	-350.8744328867718	5103.650026044382	837.7563327592186	-363.10034349508015	5115.951725603084	830.607365607831	-369.8880892687082	5036.235292549486	877.1938554137023	-303.27307426932055	5063.261512070066	857.837932599204	-330.7678483249892	5083.324810953234	844.8161668646817	-348.027970523584	5096.433467326323	836.6515681194807	-357.2261973873442	5107.508192071173	830.0175005296215	-363.40052309645546
183	0.758	5198.941	914.58397	126.699	5252.850209212772	894.5267467207707	53.25416643186754	5155.653437595199	498.16900981494496	-41.496597828323715	5141.316334811351	106.43460520449715	-116.26336641954708	4989.898669628028	29.626000424140717	-28.448830278451986	5159.079268123208	908.5002721960802	211.86100099720827	5066.2452752583	506.94490130604197	286.33702296021744	4990.901062324703	82.84027021797351	375.7642205600781	4869.4274218943765	0.5617686924997345	253.23713878737195	5133.51585518182	1032.0539099231867	77.71387148759248	5071.922529121092	1087.2046255592652	26.76950197140796	5005.0886466817465	1137.8104335911241	-29.822728952345066	4938.005982814025	1175.714938311892	-88.9609295879358	4865.178441809683	1216.730688411703	-150.46713012588447	4797.278657335721	1254.6320428432473	-203.93228090212307	4661.001139144189	1335.5379846716967	-216.71227923392138	4907.182307097569	1199.9844409899936	-152.69057750542467	4951.599547088141	1168.9404340337194	-248.85190423999032	5004.208150588557	944.6002117847746	-235.63621450170004	5008.415468027607	843.420221895551	-348.5010681075693	5000.181321829245	857.1083746697142	-344.5372107788368	4991.839444506565	866.8968414375103	-343.97337568218404	4988.165066750031	870.8899570604767	-345.65912913513046	4986.928248182728	871.8033500258761	-348.84249267322656	5007.706349013668	847.8781471369551	-351.94963626566766	5011.823548451935	845.7963280548591	-363.51895176061805	5011.3372314131475	846.2937066089779	-369.830979969243	5007.1367024691845	850.132749529158	-370.2098009521392	5001.030475884163	855.6912978977892	-368.1318910966443	5013.210344289992	840.3634371351508	-357.1172286201517	5020.204207107018	834.2676290720729	-371.19723585582346	5020.382239709826	833.8280012764051	-378.7270718425509	5015.654522847084	837.9882674218842	-379.49224454433715	5009.1385275432	843.8411690386247	-377.36843074349724	5017.0426600463425	835.0687874299948	-360.50644768821564	5026.7800797363025	824.8965563045863	-376.16518774259924	5027.6480505079235	823.5193316717465	-383.3620043458426	5023.466325494021	827.0043535947352	-384.4366414084234	5017.51901729283	832.2574012935283	-382.5992111522387	5020.9558533768595	829.3310644903578	-363.81326209418967	5032.46452413014	816.3335641092815	-380.33030364219786	5034.228789528083	813.7245567837027	-387.0134906118334	5031.695840745016	815.5379609652211	-388.2424876500377	5026.725159883331	819.771998823189	-386.8710128056134	4871.563689096115	1206.4838493107961	-106.28709229943642	4828.444590507527	1175.0973434187542	-8.878838805173096	4927.109391669761	1005.756370827104	-115.31626985485298	5015.676966454148	892.9653391705141	-281.796760158623	5019.49982382038	899.1876380069825	-287.09061890211945	5040.6474253814895	889.743418990934	-303.1438108985899	5057.274771612043	880.8120129421844	-316.32053158224517	5072.761804924706	871.3521182679979	-329.01401191596545	5025.638461350703	892.1924665501191	-294.44718574739164	5052.34429701894	878.4926997302522	-322.44006121699016	5076.396795158231	864.2904103067335	-343.4632153465894	5090.731426060645	855.8792134331574	-353.58107659305097	5102.178793709251	849.1994648536878	-359.9642602741012	5030.136952101013	886.0436678100702	-298.9784784385814	5058.616696267203	869.3567686267377	-328.7324300901415	5085.376527267005	853.0865337051825	-352.18189327113595	5102.917271193757	842.5679291912305	-364.6329737271691	5115.562618564253	835.0788141894558	-371.7360716572179	5032.595860898486	882.0784228709563	-301.4684647090687	5060.143357309058	863.7672014594831	-330.3040918787336	5083.947987978787	848.82218423116	-351.21608096743375	5101.12268140358	838.2705291291652	-363.47750791543683	5113.133453641559	831.0366540079096	-370.27532211522174	5034.95384459358	877.6744453800857	-303.5040043783366	5061.555771620405	858.2583157712919	-331.22574726922676	5081.2476709524935	845.1788926186915	-348.5839984188548	5094.079733368497	836.944556360878	-357.823919374783	5104.894716943745	830.2269434474581	-364.01625033656615
